<?xml version="1.0" standalone="no"?>
<!DOCTYPE svg PUBLIC "-//W3C//DTD SVG 20010904//EN"
 "http://www.w3.org/TR/2001/REC-SVG-20010904/DTD/svg10.dtd">
<svg version="1.0" xmlns="http://www.w3.org/2000/svg"
 width="1000.000000pt" height="1000.000000pt" viewBox="0 0 1000.000000 1000.000000"
 preserveAspectRatio="xMidYMid meet">

<g transform="translate(0.000000,1000.000000) scale(0.100000,-0.100000)"
fill="#000000" stroke="none">
<path d="M6680 7084 c-201 -110 -421 -239 -565 -332 -345 -223 -521 -420 -611
-686 -46 -134 -49 -235 -14 -441 31 -184 -5 -507 -95 -850 -19 -71 -37 -141
-40 -155 -22 -86 236 408 309 592 106 269 122 386 96 710 -19 232 1 310 118
468 150 202 449 452 816 681 171 107 172 108 166 108 -3 1 -84 -42 -180 -95z"/>
<path d="M5660 6859 c-232 -29 -397 -122 -473 -266 -48 -92 -57 -151 -54 -338
1 -88 -1 -171 -5 -185 -4 -14 2 -5 13 20 12 24 28 89 35 145 17 120 25 147 76
249 102 204 309 326 623 367 50 6 92 13 94 15 8 7 -243 2 -309 -7z"/>
<path d="M5605 6695 c-53 -52 -16 -145 58 -145 55 0 96 52 83 105 -16 64 -96
86 -141 40z"/>
<path d="M2911 6548 c35 -40 136 -145 224 -235 l161 -163 -149 0 -149 0 59
-49 c91 -76 301 -231 429 -317 l117 -79 -72 -12 c-40 -7 -78 -14 -84 -16 -14
-4 112 -72 272 -146 367 -170 650 -251 875 -251 114 0 157 10 306 70 199 80
390 191 398 232 5 24 -108 159 -195 233 -270 231 -665 415 -1258 585 -212 61
-329 90 -531 134 -144 31 -435 86 -457 86 -5 0 20 -32 54 -72z"/>
<path d="M5205 5119 c-121 -35 -233 -95 -301 -163 -94 -94 -288 -369 -453
-641 l-42 -70 48 55 c26 30 67 75 91 100 l43 45 -15 -35 c-8 -19 -42 -98 -76
-175 -77 -174 -236 -569 -285 -710 -4 -11 24 36 62 105 76 136 214 363 218
358 1 -2 -17 -79 -41 -173 -77 -300 -235 -1016 -233 -1057 0 -7 26 61 58 152
91 260 174 458 286 685 155 314 292 512 438 633 117 97 175 182 227 336 43
125 62 241 69 419 7 180 16 167 -94 136z"/>
<path d="M912 431 c-9 -26 -2 -121 9 -121 5 0 9 20 9 45 0 29 4 45 13 45 9 0
8 3 -2 9 -7 5 -10 14 -7 20 4 6 12 9 17 6 5 -4 9 -1 9 4 0 19 -40 12 -48 -8z"/>
<path d="M1460 380 c0 -40 4 -70 10 -70 6 0 10 30 10 70 0 40 -4 70 -10 70 -6
0 -10 -30 -10 -70z"/>
<path d="M2730 380 c0 -40 4 -70 10 -70 6 0 10 18 10 39 0 24 5 41 14 44 20 8
26 -1 26 -39 0 -18 5 -36 11 -39 7 -5 9 9 7 42 -3 45 -5 48 -30 48 -23 -1 -28
4 -28 22 0 13 -4 23 -10 23 -6 0 -10 -30 -10 -70z"/>
<path d="M3090 440 c0 -5 5 -10 10 -10 6 0 10 5 10 10 0 6 -4 10 -10 10 -5 0
-10 -4 -10 -10z"/>
<path d="M3370 380 c0 -40 4 -70 10 -70 6 0 10 30 10 70 0 40 -4 70 -10 70 -6
0 -10 -30 -10 -70z"/>
<path d="M3443 430 c-3 -11 -10 -20 -16 -20 -7 0 -7 -4 1 -12 7 -7 12 -29 12
-50 0 -21 5 -38 10 -38 6 0 10 20 10 45 0 29 4 45 13 45 9 0 8 3 -2 9 -7 5
-10 14 -7 20 4 6 12 9 17 6 5 -4 9 -1 9 4 0 20 -42 12 -47 -9z"/>
<path d="M3820 380 c0 -40 4 -70 10 -70 6 0 10 9 10 20 0 11 3 20 8 20 4 0 13
-9 20 -20 20 -32 35 -23 16 10 -17 28 -17 30 1 50 10 11 13 20 8 20 -6 0 -16
-7 -23 -15 -20 -24 -30 -17 -30 20 0 19 -4 35 -10 35 -6 0 -10 -30 -10 -70z"/>
<path d="M4400 380 c0 -40 4 -70 10 -70 6 0 10 10 10 23 l1 22 18 -22 c28 -33
46 -29 22 5 l-20 29 22 21 c26 26 4 31 -25 5 -17 -15 -18 -14 -18 20 0 21 -4
37 -10 37 -6 0 -10 -30 -10 -70z"/>
<path d="M5740 440 c0 -5 5 -10 11 -10 5 0 7 5 4 10 -3 6 -8 10 -11 10 -2 0
-4 -4 -4 -10z"/>
<path d="M5910 380 c0 -40 4 -70 10 -70 6 0 10 18 10 39 0 24 5 41 14 44 20 8
26 -1 26 -39 0 -18 5 -36 11 -39 7 -5 9 9 7 42 -3 45 -5 48 -30 48 -23 -1 -28
4 -28 22 0 13 -4 23 -10 23 -6 0 -10 -30 -10 -70z"/>
<path d="M6630 440 c0 -5 5 -10 11 -10 5 0 7 5 4 10 -3 6 -8 10 -11 10 -2 0
-4 -4 -4 -10z"/>
<path d="M7050 440 c0 -5 5 -10 10 -10 6 0 10 5 10 10 0 6 -4 10 -10 10 -5 0
-10 -4 -10 -10z"/>
<path d="M7110 380 c0 -40 4 -70 10 -70 6 0 10 30 10 70 0 40 -4 70 -10 70 -6
0 -10 -30 -10 -70z"/>
<path d="M7170 380 c0 -40 4 -70 10 -70 6 0 10 30 10 70 0 40 -4 70 -10 70 -6
0 -10 -30 -10 -70z"/>
<path d="M7230 440 c0 -5 5 -10 10 -10 6 0 10 5 10 10 0 6 -4 10 -10 10 -5 0
-10 -4 -10 -10z"/>
<path d="M7870 440 c0 -5 5 -10 11 -10 5 0 7 5 4 10 -3 6 -8 10 -11 10 -2 0
-4 -4 -4 -10z"/>
<path d="M8150 380 c0 -40 4 -70 10 -70 6 0 10 30 10 70 0 40 -4 70 -10 70 -6
0 -10 -30 -10 -70z"/>
<path d="M8690 380 c0 -40 4 -70 10 -70 6 0 10 10 10 23 l1 22 18 -22 c28 -33
46 -29 22 5 l-20 29 22 21 c26 26 4 31 -25 5 -17 -15 -18 -14 -18 20 0 21 -4
37 -10 37 -6 0 -10 -30 -10 -70z"/>
<path d="M9380 440 c0 -5 5 -10 10 -10 6 0 10 5 10 10 0 6 -4 10 -10 10 -5 0
-10 -4 -10 -10z"/>
<path d="M380 375 l0 -65 43 2 c36 1 38 2 10 5 l-33 4 0 60 c0 33 -4 59 -10
59 -6 0 -10 -28 -10 -65z"/>
<path d="M1916 419 c-19 -15 -26 -30 -26 -55 0 -58 14 -74 65 -74 25 0 45 4
45 9 0 6 -15 7 -34 4 -29 -4 -37 -1 -52 22 -33 51 23 123 71 91 21 -14 34 -76
16 -76 -6 0 -11 14 -11 30 0 25 -4 30 -24 30 -28 0 -49 -22 -44 -47 3 -14 13
-18 53 -18 49 0 50 1 53 32 6 63 -59 94 -112 52z m45 -72 c-7 -7 -12 -5 -17 7
-4 11 -1 21 7 27 17 11 26 -18 10 -34z"/>
<path d="M4960 420 c-43 -43 -14 -110 48 -110 63 0 89 71 40 113 -27 23 -63
22 -88 -3z m78 -6 c41 -29 19 -94 -33 -94 -24 0 -55 33 -55 57 0 15 39 53 55
53 6 0 21 -7 33 -16z"/>
<path d="M4980 395 c-19 -23 -3 -55 28 -54 26 0 26 1 5 9 -28 12 -30 40 -3 40
11 0 20 5 20 10 0 15 -36 12 -50 -5z"/>
<path d="M5187 422 c-20 -22 -22 -83 -5 -100 7 -7 28 -11 48 -11 27 1 29 3 10
6 -37 7 -50 22 -50 59 0 36 26 59 54 48 9 -3 16 -1 16 5 0 18 -56 13 -73 -7z"/>
<path d="M6170 375 c0 -71 19 -92 21 -22 l1 42 19 -42 c11 -24 23 -43 28 -43
4 0 16 19 26 43 l18 42 7 -45 c7 -42 7 -41 8 23 2 79 -12 86 -37 19 -8 -23
-18 -42 -22 -42 -3 0 -14 20 -23 45 -26 68 -46 59 -46 -20z"/>
<path d="M6860 428 c1 -31 27 -112 37 -115 7 -3 18 16 26 43 l14 48 15 -44 c8
-24 19 -45 24 -47 6 -2 18 24 27 57 20 69 20 70 8 70 -5 0 -14 -21 -21 -47
l-13 -48 -15 48 c-18 55 -33 56 -45 4 -12 -48 -24 -47 -32 3 -6 36 -25 58 -25
28z"/>
<path d="M7751 373 c1 -45 3 -59 8 -43 5 18 16 26 36 30 56 10 42 80 -16 80
l-29 0 1 -67z m47 48 c21 -13 10 -46 -16 -49 -17 -3 -22 1 -22 21 0 35 13 45
38 28z"/>
<path d="M8270 375 c0 -37 4 -65 10 -65 6 0 10 13 10 29 0 25 5 30 28 34 l27
4 -27 2 c-23 1 -28 6 -28 25 0 20 6 25 33 29 28 3 26 4 -10 5 l-43 2 0 -65z"/>
<path d="M8877 422 c-20 -22 -22 -83 -5 -100 7 -7 28 -11 48 -11 27 1 29 3 10
6 -37 7 -50 22 -50 59 0 36 26 59 54 48 9 -3 16 -1 16 5 0 18 -56 13 -73 -7z"/>
<path d="M1815 417 c-10 -12 -10 -38 0 -84 4 -16 13 -23 28 -23 20 1 20 2 5
11 -11 6 -18 22 -18 39 0 17 7 33 18 39 15 9 15 10 0 11 -9 0 -18 4 -20 9 -1
5 -8 4 -13 -2z"/>
<path d="M2654 420 c-5 -5 -7 -31 -4 -57 4 -42 8 -48 30 -50 14 -1 18 0 8 3
-13 4 -18 16 -18 45 0 30 4 39 18 40 13 0 14 2 2 6 -8 3 -18 10 -21 14 -3 5
-10 4 -15 -1z"/>
<path d="M6035 417 c-10 -12 -10 -38 0 -84 4 -16 13 -23 28 -23 20 1 20 2 5
11 -11 6 -18 22 -18 39 0 17 7 33 18 39 15 9 15 10 0 11 -9 0 -18 4 -20 9 -1
5 -8 4 -13 -2z"/>
<path d="M6548 419 c-2 -6 -1 -32 2 -58 4 -40 8 -46 30 -48 14 -1 18 0 8 3
-13 4 -18 16 -18 44 0 28 5 40 18 43 16 4 16 5 0 6 -10 0 -18 6 -18 11 0 14
-17 13 -22 -1z"/>
<path d="M9305 417 c-10 -12 -10 -38 0 -84 4 -16 13 -23 28 -23 20 1 20 2 5
11 -11 6 -18 22 -18 39 0 17 7 33 18 39 15 9 15 10 0 11 -9 0 -18 4 -20 9 -1
5 -8 4 -13 -2z"/>
<path d="M490 391 c-25 -47 -2 -85 47 -79 24 2 28 8 31 36 2 18 -2 40 -9 48
-17 20 -57 17 -69 -5z m58 -35 c-2 -23 -8 -31 -23 -31 -23 0 -33 38 -15 60 19
23 41 6 38 -29z"/>
<path d="M614 398 c-4 -6 -8 -38 -10 -70 l-3 -59 42 3 c37 3 42 6 42 28 0 20
-6 26 -27 28 -33 4 -37 19 -6 24 14 2 24 13 29 31 7 25 5 27 -26 27 -19 0 -37
-5 -41 -12z m46 -24 c0 -17 -26 -19 -36 -3 -7 12 15 31 28 23 4 -3 8 -12 8
-20z m8 -71 c5 -16 -22 -27 -44 -19 -13 5 -14 9 -4 22 15 17 41 15 48 -3z"/>
<path d="M731 396 c-7 -8 -11 -30 -9 -48 3 -28 7 -33 33 -36 47 -6 73 48 39
82 -19 20 -48 21 -63 2z m49 -11 c15 -18 5 -65 -15 -65 -23 0 -38 36 -25 60
13 24 23 25 40 5z"/>
<path d="M991 396 c-7 -8 -11 -30 -9 -48 3 -28 7 -33 33 -36 47 -6 73 48 39
82 -19 20 -48 21 -63 2z m49 -11 c15 -18 5 -65 -15 -65 -23 0 -38 36 -25 60
13 24 23 25 40 5z"/>
<path d="M1100 358 c0 -26 5 -48 10 -48 6 0 10 15 10 34 0 24 7 39 21 50 21
14 21 15 -10 14 -30 -1 -31 -2 -31 -50z"/>
<path d="M1257 403 c-15 -14 -6 -40 19 -51 28 -13 23 -37 -7 -29 -11 3 -19 1
-19 -5 0 -5 15 -8 32 -6 45 4 49 32 8 53 -32 17 -32 40 1 30 11 -4 19 -2 19 4
0 12 -43 15 -53 4z"/>
<path d="M1360 400 c0 -7 6 -10 14 -7 8 3 20 -1 26 -9 10 -11 9 -14 -8 -14
-26 0 -53 -26 -46 -45 4 -9 19 -15 41 -15 l34 0 -3 48 c-3 43 -5 47 -30 50
-17 2 -28 -2 -28 -8z m44 -49 c8 -12 -21 -34 -34 -26 -8 5 -8 11 1 21 13 16
25 18 33 5z"/>
<path d="M1532 398 c-13 -13 -16 -47 -6 -72 4 -11 18 -16 43 -15 35 1 35 1 6
8 -42 9 -47 41 -6 41 24 0 31 4 31 19 0 29 -45 42 -68 19z m48 -19 c0 -5 -9
-9 -20 -9 -22 0 -27 16 -7 23 15 5 27 -1 27 -14z"/>
<path d="M1705 400 c-5 -8 1 -11 15 -8 35 5 34 -16 -1 -29 -44 -17 -36 -47 14
-51 l38 -3 -3 48 c-3 44 -5 48 -30 51 -14 2 -29 -2 -33 -8z m45 -54 c0 -21
-20 -30 -33 -17 -9 9 -8 14 3 21 21 14 30 12 30 -4z"/>
<path d="M2124 363 c13 -50 38 -65 44 -28 7 35 20 38 27 6 10 -45 31 -38 44
13 13 54 13 56 2 56 -5 0 -12 -15 -16 -32 l-7 -33 -14 33 c-18 40 -30 41 -39
2 -4 -16 -10 -30 -15 -30 -4 0 -10 14 -13 30 -4 17 -11 30 -16 30 -5 0 -4 -21
3 -47z"/>
<path d="M2270 404 c0 -3 5 -25 11 -50 13 -51 34 -58 44 -13 7 32 20 29 27 -6
6 -37 31 -22 44 28 7 26 8 47 3 47 -5 0 -12 -13 -15 -30 -4 -16 -10 -30 -14
-30 -5 0 -11 14 -15 30 -9 39 -21 38 -39 -2 l-14 -33 -7 33 c-4 17 -11 32 -16
32 -5 0 -9 -3 -9 -6z"/>
<path d="M2423 396 c3 -8 9 -31 13 -50 7 -42 31 -48 40 -11 3 14 10 25 14 25
4 0 11 -11 14 -25 9 -37 33 -31 40 11 4 19 10 42 13 50 3 8 1 14 -4 14 -6 0
-15 -15 -20 -32 l-10 -33 -13 33 c-6 17 -16 32 -20 32 -4 0 -14 -15 -20 -32
l-13 -33 -10 33 c-5 17 -14 32 -20 32 -5 0 -7 -6 -4 -14z"/>
<path d="M2861 396 c-7 -8 -11 -30 -9 -48 3 -31 5 -33 43 -35 35 -1 36 -1 10
5 -42 10 -47 42 -6 42 32 0 41 16 19 38 -16 16 -43 15 -57 -2z m47 -14 c2 -7
-6 -12 -17 -12 -21 0 -27 11 -14 24 9 9 26 2 31 -12z"/>
<path d="M2971 335 c1 -38 4 -60 6 -48 3 16 13 23 36 25 28 3 32 7 35 36 4 42
-13 63 -49 60 l-29 -2 1 -71z m59 45 c11 -21 -2 -60 -20 -60 -18 0 -31 39 -20
60 6 11 15 20 20 20 5 0 14 -9 20 -20z"/>
<path d="M3090 360 c0 -27 5 -50 10 -50 6 0 10 23 10 50 0 28 -4 50 -10 50 -5
0 -10 -22 -10 -50z"/>
<path d="M3155 384 c15 -23 15 -27 0 -50 -13 -20 -13 -24 -1 -24 7 0 17 8 21
18 6 16 7 16 19 0 21 -29 39 -22 20 7 -15 23 -15 27 0 50 18 27 7 35 -14 10
-12 -14 -15 -14 -30 0 -26 23 -34 18 -15 -11z"/>
<path d="M3274 402 c-18 -12 -26 -50 -14 -72 8 -14 20 -20 43 -19 21 1 25 3
12 6 -51 13 -54 43 -4 43 30 0 38 17 17 38 -13 13 -37 15 -54 4z m36 -17 c11
-13 8 -15 -15 -15 -23 0 -26 2 -15 15 7 8 14 15 15 15 1 0 8 -7 15 -15z"/>
<path d="M3510 358 c0 -27 5 -48 10 -48 6 0 10 17 10 38 0 31 5 41 23 50 20
10 20 10 -10 9 -32 -2 -33 -3 -33 -49z"/>
<path d="M3600 391 c-24 -46 -5 -82 45 -80 l30 1 -30 7 c-17 3 -31 14 -33 24
-3 14 4 17 32 17 20 0 36 3 36 6 0 20 -24 44 -45 44 -14 0 -29 -8 -35 -19z
m50 -6 c11 -13 8 -15 -15 -15 -23 0 -26 2 -15 15 7 8 14 15 15 15 1 0 8 -7 15
-15z"/>
<path d="M3715 400 c-5 -8 1 -11 15 -8 35 5 34 -16 -1 -29 -44 -17 -36 -47 14
-51 l38 -3 -3 48 c-3 44 -5 48 -30 51 -14 2 -29 -2 -33 -8z m45 -54 c0 -21
-20 -30 -33 -17 -9 9 -8 14 3 21 21 14 30 12 30 -4z"/>
<path d="M4001 396 c-7 -8 -11 -30 -9 -48 3 -30 6 -33 38 -35 29 -2 31 -1 10
5 -19 6 -26 16 -28 40 -3 31 3 37 36 33 6 -1 12 3 12 9 0 15 -46 12 -59 -4z"/>
<path d="M4102 398 c-29 -29 -10 -88 27 -88 34 0 51 17 51 50 0 31 -17 50 -45
50 -12 0 -26 -5 -33 -12z m56 -47 c-4 -38 -42 -36 -46 3 -2 16 2 32 9 37 20
12 40 -11 37 -40z"/>
<path d="M4282 363 c3 -48 3 -48 41 -51 l37 -3 0 50 c0 62 -18 68 -22 9 -2
-31 -8 -44 -20 -46 -15 -3 -18 4 -18 42 0 26 -5 46 -11 46 -6 0 -9 -19 -7 -47z"/>
<path d="M5314 402 c-18 -12 -26 -50 -14 -72 17 -31 68 -27 81 6 17 46 -29 92
-67 66z m48 -27 c12 -27 -2 -55 -28 -55 -19 0 -29 47 -14 65 18 21 29 19 42
-10z"/>
<path d="M5420 338 c0 -39 4 -68 10 -68 6 0 10 9 10 20 0 15 7 20 29 20 30 0
41 14 41 55 0 30 -19 44 -58 43 l-32 -1 0 -69z m68 13 c-2 -18 -9 -26 -23 -26
-24 0 -33 38 -14 61 17 21 41 -2 37 -35z"/>
<path d="M5530 405 c0 -3 7 -22 15 -42 20 -47 19 -70 -2 -83 -16 -9 -15 -10 6
-8 23 3 40 33 65 116 12 37 -10 24 -26 -15 l-14 -38 -13 38 c-7 20 -17 37 -22
37 -5 0 -9 -2 -9 -5z"/>
<path d="M5650 358 c0 -27 5 -48 10 -48 6 0 10 17 10 38 0 31 5 41 23 50 20
10 20 10 -10 9 -32 -2 -33 -3 -33 -49z"/>
<path d="M5743 360 c0 -30 2 -43 4 -27 2 15 2 39 0 55 -2 15 -4 2 -4 -28z"/>
<path d="M5801 396 c-7 -8 -9 -25 -6 -39 4 -14 2 -33 -3 -44 -15 -29 -3 -43
38 -43 24 0 40 5 44 15 10 26 -5 45 -36 45 -17 0 -27 4 -23 10 3 6 14 10 25
10 11 0 22 11 29 30 10 29 9 30 -23 30 -19 0 -39 -6 -45 -14z m45 -7 c10 -17
-13 -36 -27 -22 -12 12 -4 33 11 33 5 0 12 -5 16 -11z m9 -89 c0 -18 -33 -26
-48 -11 -9 9 -8 14 3 21 21 14 45 8 45 -10z"/>
<path d="M6355 401 c-4 -7 2 -10 16 -8 34 3 33 -20 -1 -27 -26 -5 -31 -10 -28
-28 2 -19 10 -24 41 -26 l38 -3 -3 48 c-3 44 -5 48 -30 51 -14 2 -29 -2 -33
-7z m43 -58 c-4 -22 -38 -30 -38 -10 0 14 13 24 33 26 5 1 7 -7 5 -16z"/>
<path d="M6460 358 c0 -26 5 -48 10 -48 6 0 10 15 10 34 0 24 7 39 21 50 21
14 21 15 -10 14 -30 -1 -31 -2 -31 -50z"/>
<path d="M6633 360 c0 -30 2 -43 4 -27 2 15 2 39 0 55 -2 15 -4 2 -4 -28z"/>
<path d="M6691 356 c1 -51 1 -51 9 -13 13 71 50 76 50 6 0 -21 5 -39 11 -39 6
0 9 19 7 48 -3 47 -3 47 -40 48 l-38 1 1 -51z"/>
<path d="M7050 360 c0 -27 5 -50 10 -50 6 0 10 23 10 50 0 28 -4 50 -10 50 -5
0 -10 -22 -10 -50z"/>
<path d="M7230 360 c0 -27 5 -50 10 -50 6 0 10 23 10 50 0 28 -4 50 -10 50 -5
0 -10 -22 -10 -50z"/>
<path d="M7295 400 c-5 -8 1 -11 15 -8 35 5 34 -16 -1 -29 -44 -17 -36 -47 14
-51 l38 -3 -3 48 c-3 44 -5 48 -30 51 -14 2 -29 -2 -33 -8z m45 -54 c0 -21
-20 -30 -33 -17 -9 9 -8 14 3 21 21 14 30 12 30 -4z"/>
<path d="M7400 359 c0 -27 5 -49 10 -49 6 0 10 18 10 39 0 24 5 41 14 44 20 8
26 -2 26 -45 0 -21 5 -38 10 -38 6 0 10 15 10 34 0 33 20 62 33 49 4 -3 7 -24
7 -45 0 -21 5 -38 11 -38 6 0 9 19 7 48 l-3 47 -67 1 -68 1 0 -48z"/>
<path d="M7587 403 c-15 -14 -6 -40 18 -51 14 -6 25 -17 25 -23 0 -7 -10 -9
-25 -7 -14 3 -25 1 -25 -4 0 -5 15 -8 32 -6 42 4 50 33 13 50 -27 12 -29 35
-1 30 9 -2 16 2 16 8 0 11 -43 14 -53 3z"/>
<path d="M7873 360 c0 -30 2 -43 4 -27 2 15 2 39 0 55 -2 15 -4 2 -4 -28z"/>
<path d="M7920 403 c0 -5 7 -17 15 -27 13 -17 13 -22 -2 -38 -9 -10 -13 -21
-9 -26 4 -4 14 2 22 13 14 19 16 19 25 3 6 -10 15 -18 21 -18 6 0 4 10 -5 24
-14 21 -14 26 0 45 19 28 7 43 -13 16 -14 -19 -16 -19 -25 -2 -10 17 -29 24
-29 10z"/>
<path d="M8042 398 c-13 -13 -16 -47 -6 -72 4 -11 18 -16 43 -15 35 1 35 1 6
8 -42 9 -47 41 -6 41 24 0 31 4 31 19 0 29 -45 42 -68 19z m48 -19 c0 -5 -9
-9 -20 -9 -22 0 -27 16 -7 23 15 5 27 -1 27 -14z"/>
<path d="M8381 355 c1 -50 1 -50 9 -12 4 21 16 44 26 52 18 14 17 14 -8 13
-27 -2 -28 -5 -27 -53z"/>
<path d="M8471 396 c-7 -8 -11 -30 -9 -48 3 -31 5 -33 43 -35 35 -1 36 -1 10
5 -42 10 -47 42 -6 42 32 0 41 16 19 38 -16 16 -43 15 -57 -2z m47 -14 c2 -7
-6 -12 -17 -12 -21 0 -27 11 -14 24 9 9 26 2 31 -12z"/>
<path d="M8585 401 c-4 -7 2 -10 16 -8 34 3 33 -20 -1 -27 -26 -5 -31 -10 -28
-28 2 -19 10 -24 41 -26 l38 -3 -3 48 c-3 44 -5 48 -30 51 -14 2 -29 -2 -33
-7z m43 -58 c-4 -22 -38 -30 -38 -10 0 14 13 24 33 26 5 1 7 -7 5 -16z"/>
<path d="M8990 358 c0 -27 5 -48 10 -48 6 0 10 17 10 38 0 31 5 41 23 50 20
10 20 10 -10 9 -32 -2 -33 -3 -33 -49z"/>
<path d="M9082 398 c-13 -13 -16 -47 -6 -72 4 -11 18 -16 43 -15 35 1 35 1 6
8 -42 9 -47 41 -6 41 24 0 31 4 31 19 0 29 -45 42 -68 19z m48 -19 c0 -5 -9
-9 -20 -9 -22 0 -27 16 -7 23 15 5 27 -1 27 -14z"/>
<path d="M9195 400 c-5 -8 1 -11 15 -8 35 5 34 -16 -1 -29 -44 -17 -36 -47 14
-51 l38 -3 -3 48 c-3 44 -5 48 -30 51 -14 2 -29 -2 -33 -8z m45 -54 c0 -21
-20 -30 -33 -17 -9 9 -8 14 3 21 21 14 30 12 30 -4z"/>
<path d="M9380 360 c0 -27 5 -50 10 -50 6 0 10 23 10 50 0 28 -4 50 -10 50 -5
0 -10 -22 -10 -50z"/>
<path d="M9430 400 c0 -23 33 -90 45 -90 6 0 17 17 24 38 7 20 15 43 17 50 3
6 1 12 -4 12 -5 0 -17 -17 -25 -37 l-15 -38 -11 28 c-6 16 -11 33 -11 38 0 5
-4 9 -10 9 -5 0 -10 -4 -10 -10z"/>
<path d="M9552 398 c-13 -13 -16 -47 -6 -72 4 -11 18 -16 43 -15 35 1 35 1 6
8 -42 9 -47 41 -6 41 24 0 31 4 31 19 0 29 -45 42 -68 19z m48 -19 c0 -5 -9
-9 -20 -9 -22 0 -27 16 -7 23 15 5 27 -1 27 -14z"/>
<path d="M4680 360 c0 -5 11 -10 25 -10 14 0 25 5 25 10 0 6 -11 10 -25 10
-14 0 -25 -4 -25 -10z"/>
<path d="M2590 320 c0 -5 5 -10 10 -10 6 0 10 5 10 10 0 6 -4 10 -10 10 -5 0
-10 -4 -10 -10z"/>
<path d="M3930 320 c0 -5 5 -10 10 -10 6 0 10 5 10 10 0 6 -4 10 -10 10 -5 0
-10 -4 -10 -10z"/>
<path d="M4215 320 c-3 -5 1 -10 9 -10 9 0 16 5 16 10 0 6 -4 10 -9 10 -6 0
-13 -4 -16 -10z"/>
</g>
</svg>
